<?xml version="1.0" encoding="UTF-8"?>
<svg id="Calque_2" data-name="Calque 2" xmlns="http://www.w3.org/2000/svg" viewBox="0 0 121.18 32.81">
  <defs>
    <style>
      .cls-1 {
        fill: #1d1d1b;
      }

      .cls-2 {
        fill: #050203;
        stroke: #050203;
        stroke-miterlimit: 10;
        stroke-width: .29px;
      }
    </style>
  </defs>
  <g id="Calque_1-2" data-name="Calque 1">
    <g>
      <path class="cls-1" d="M15.83.68c1.12.09,1.97.15,2.54.19.58.04,1.05.06,1.4.06.68,0,1.34-.02,2-.06.65-.04,1.3-.09,1.95-.17v1.57h-.49c-.82,0-1.38.41-1.68,1.22-.29.82-.44,2.69-.44,5.62v4.47l.05,16.46c.58.05,1.14.08,1.67.1.53.02,1.03.03,1.5.03,2.8,0,4.6-.37,5.41-1.11.81-.74,1.45-2.18,1.93-4.3l1.13.49c-.32,1.29-.61,2.55-.86,3.8-.25,1.24-.47,2.49-.66,3.75-1.73-.08-3.33-.13-4.78-.17-1.46-.04-2.82-.06-4.1-.06-.9,0-1.9.02-3.01.06s-2.41.09-3.92.17v-1.46c.07.01.14.03.21.03.07,0,.17.01.31.01,1.41-.01,2.12-2.9,2.13-8.64,0-1.3,0-2.32.02-3.05l.03-6.11c0-.66,0-1.5.02-2.54.01-1.03.02-1.75.02-2.16,0-2.75-.15-4.55-.46-5.38-.31-.83-.91-1.25-1.79-1.25h-.13V.68Z"/>
      <path class="cls-1" d="M3.51,30.46c-.18-.49-.24-1.16-.18-2,.06-.84.27-1.88.61-3.11l1.31-4.88h7.76l.5,1.9c.78-.82,1.68-1.3,2.63-1.3.05,0,.1.01.15.01L10.58,0h-.51l-.82,3.2-.38,1.33h0s.3,1.2.3,1.2c0,.02,0,.05.01.07,0,0,0,.01,0,.02,0,0,0,0,0,0h0s.04.16.04.16l.13.51h0s3.41,13.07,3.41,13.07h-7.98l-2.25,8.33c-.36,1.38-.77,2.35-1.22,2.92-.45.57-.89.93-1.31,1.08v.92c.32-.06.67-.1,1.04-.12.37-.01.83-.02,1.36-.02s1.16,0,1.81.02c.65.02,1.28.05,1.88.12v-.92c-.66-.03-1.21-.15-1.65-.37-.44-.21-.75-.57-.93-1.06Z"/>
    </g>
    <g>
      <g>
        <path class="cls-1" d="M41.69,11.54l1.72,4.42c.07.17.14.29.23.35.09.06.17.09.24.1v.14c-.11,0-.24-.01-.4-.02-.15,0-.31,0-.46,0-.2,0-.38,0-.55,0s-.3,0-.41.02v-.14c.24,0,.39-.05.45-.12.06-.07.05-.23-.05-.47l-1.27-3.42.11-.13-1.17,3.05c-.08.21-.13.39-.15.53s0,.25.04.33.11.14.21.17.22.05.37.06v.14c-.14,0-.28-.01-.43-.02-.14,0-.28,0-.4,0-.11,0-.21,0-.3,0-.09,0-.17,0-.24.02v-.14c.1-.02.2-.08.3-.18s.19-.25.28-.48l1.63-4.21h.24ZM42.43,14.52v.14h-2.1l.07-.14h2.03Z"/>
        <path class="cls-1" d="M47.88,12.84v2.95c0,.21.04.37.11.47s.21.15.4.15v.15c-.15-.01-.29-.02-.44-.02-.16,0-.3,0-.44.02-.14.01-.27.04-.39.08v-.77c-.12.28-.28.48-.49.6-.21.12-.43.18-.66.18-.17,0-.32-.02-.44-.07-.12-.05-.22-.11-.3-.19-.08-.09-.14-.22-.18-.36s-.05-.33-.05-.56v-1.77c0-.21-.03-.37-.11-.47s-.2-.15-.4-.15v-.15c.15.01.3.02.44.02.16,0,.3,0,.44-.02.14-.02.27-.04.39-.07v2.81c0,.14,0,.26.03.37.02.11.06.2.13.27s.18.1.34.1c.16,0,.31-.05.44-.15.13-.1.23-.23.31-.4.07-.17.11-.36.11-.57v-1.59c0-.21-.04-.37-.11-.47-.07-.1-.2-.15-.4-.15v-.15c.15.01.3.02.44.02.15,0,.3,0,.44-.02.14-.02.27-.04.39-.07Z"/>
        <path class="cls-1" d="M51.77,12.82c.14,0,.25.03.35.08.1.06.17.13.22.22s.07.18.07.29c0,.14-.04.25-.12.35-.08.1-.19.14-.33.14-.12,0-.22-.04-.3-.11-.08-.07-.12-.17-.12-.29,0-.1.03-.19.08-.26.05-.07.12-.13.19-.17-.05-.04-.1-.05-.17-.05-.13,0-.24.05-.35.12-.11.08-.2.18-.27.3-.07.12-.13.25-.18.38-.04.14-.06.26-.06.38v1.62c0,.23.06.38.19.46.13.08.3.12.53.12v.15c-.11,0-.26-.01-.46-.02-.2,0-.41-.01-.63-.01-.17,0-.34,0-.51.01-.17,0-.3.01-.39.02v-.15c.18,0,.31-.04.39-.11.08-.07.12-.2.12-.4v-2.21c0-.21-.04-.37-.11-.47s-.2-.15-.4-.15v-.15c.15.01.3.02.44.02.16,0,.31,0,.45-.02.14-.02.27-.04.38-.07v.81c.06-.14.13-.27.22-.39.09-.13.21-.23.34-.31.13-.08.28-.12.44-.12Z"/>
        <path class="cls-1" d="M55.09,12.82c.41,0,.74.12.97.37.23.25.35.64.35,1.18h-2.43v-.13s1.68,0,1.68,0c0-.23-.01-.44-.06-.64-.04-.19-.11-.35-.2-.47-.09-.12-.21-.18-.35-.18-.2,0-.38.11-.52.32-.15.21-.24.56-.27,1.02l.02.04c0,.07,0,.14-.01.21,0,.08,0,.15,0,.23,0,.32.05.6.15.82.1.22.23.39.39.5.16.11.32.16.49.16.13,0,.25-.02.37-.06s.23-.11.34-.2c.11-.1.2-.23.29-.4l.14.06c-.06.16-.14.32-.26.47-.12.16-.27.28-.45.38-.18.1-.4.14-.64.14-.33,0-.61-.07-.86-.22-.24-.15-.43-.36-.56-.64-.13-.28-.2-.6-.2-.98,0-.42.07-.77.2-1.07.14-.3.33-.52.57-.68.25-.16.53-.24.85-.24ZM55.83,10.82c.06.05.09.12.1.2s-.02.17-.09.27c-.07.09-.16.18-.27.27s-.23.19-.37.3c-.14.12-.31.27-.5.47l-.08-.06c.15-.24.26-.44.34-.61s.15-.31.2-.43c.06-.12.12-.23.19-.32.07-.09.15-.15.24-.16.09-.01.17.01.24.07Z"/>
        <path class="cls-1" d="M58.9,11.03v4.86c0,.2.04.33.12.4.08.07.21.11.39.11v.15c-.08,0-.21-.01-.38-.02-.17,0-.33-.01-.5-.01s-.34,0-.51.01c-.17,0-.3.01-.38.02v-.15c.18,0,.31-.04.39-.11.08-.07.12-.2.12-.4v-4.02c0-.21-.04-.37-.11-.47-.07-.1-.2-.15-.4-.15v-.15c.15.01.3.02.44.02.15,0,.3,0,.44-.02.14-.02.27-.04.39-.07Z"/>
        <path class="cls-1" d="M61.79,12.84v3.05c0,.2.04.33.12.4.08.07.21.11.39.11v.15c-.08,0-.2-.01-.37-.02-.17,0-.34-.01-.51-.01s-.34,0-.51.01c-.17,0-.3.01-.38.02v-.15c.18,0,.31-.04.39-.11.08-.07.12-.2.12-.4v-2.21c0-.21-.04-.37-.11-.47s-.2-.15-.4-.15v-.15c.15.01.3.02.44.02.16,0,.31,0,.45-.02.14-.02.27-.04.38-.07ZM61.36,11.15c.15,0,.27.05.37.14s.15.2.15.34-.05.25-.15.34-.22.14-.37.14-.27-.05-.37-.14-.15-.2-.15-.34.05-.25.15-.34.22-.14.37-.14Z"/>
        <path class="cls-1" d="M65.16,12.82c.41,0,.74.12.97.37.23.25.35.64.35,1.18h-2.43v-.13s1.68,0,1.68,0c0-.23-.01-.44-.06-.64-.04-.19-.11-.35-.2-.47-.09-.12-.21-.18-.35-.18-.2,0-.38.11-.52.32-.15.21-.24.56-.27,1.02l.02.04c0,.07,0,.14-.01.21,0,.08,0,.15,0,.23,0,.32.05.6.15.82.1.22.23.39.39.5.16.11.32.16.49.16.13,0,.25-.02.37-.06s.23-.11.34-.2c.11-.1.2-.23.29-.4l.14.06c-.06.16-.14.32-.26.47-.12.16-.27.28-.45.38-.18.1-.4.14-.64.14-.33,0-.61-.07-.86-.22-.24-.15-.43-.36-.56-.64-.13-.28-.2-.6-.2-.98,0-.42.07-.77.2-1.07.14-.3.33-.52.57-.68.25-.16.53-.24.85-.24Z"/>
        <path class="cls-1" d="M70.18,12.82c.19,0,.34.02.46.07.12.05.22.12.3.2.08.09.14.2.18.34s.05.33.05.57v1.89c0,.2.04.33.12.4.08.07.21.11.39.11v.15c-.08,0-.2-.01-.37-.02-.17,0-.34-.01-.5-.01s-.32,0-.47.01c-.16,0-.28.01-.35.02v-.15c.16,0,.27-.04.34-.11.07-.07.1-.2.1-.4v-2.08c0-.14-.01-.26-.04-.37-.02-.11-.07-.2-.15-.27-.08-.07-.19-.1-.34-.1-.17,0-.33.05-.46.15-.13.1-.24.23-.32.4-.08.17-.12.36-.12.57v1.7c0,.2.03.33.1.4.07.07.18.11.33.11v.15c-.07,0-.19-.01-.34-.02-.15,0-.31-.01-.47-.01s-.33,0-.5.01c-.17,0-.3.01-.39.02v-.15c.18,0,.31-.04.39-.11.08-.07.12-.2.12-.4v-2.21c0-.21-.04-.37-.11-.47s-.2-.15-.4-.15v-.15c.15.01.3.02.44.02.16,0,.31,0,.45-.02.14-.02.27-.04.38-.07v.77c.12-.29.29-.49.5-.61.21-.12.44-.18.68-.18Z"/>
      </g>
      <g>
        <path class="cls-1" d="M73.71,7.55c.45.03.79.04,1.02.05.23.01.42.02.56.02.27,0,.54,0,.8-.02s.52-.03.78-.05v.44h-.2c-.33,0-.56.11-.67.34s-.18.75-.18,1.58v1.25l.02,4.61c.24.01.46.02.67.03.21,0,.41,0,.6,0,1.12,0,1.85-.1,2.17-.31.33-.21.58-.61.78-1.21l.45.14c-.13.36-.25.72-.35,1.06-.1.35-.19.7-.26,1.05-.7-.02-1.34-.04-1.92-.05-.58-.01-1.13-.02-1.65-.02-.36,0-.76,0-1.21.02s-.97.03-1.57.05v-.41s.06,0,.08.01.07,0,.12,0c.57,0,.85-.81.86-2.42,0-.37,0-.65,0-.86v-1.71c.01-.18.01-.42.02-.71,0-.29,0-.49,0-.6,0-.77-.06-1.27-.19-1.51-.12-.23-.36-.35-.72-.35h-.05v-.45Z"/>
        <path class="cls-1" d="M86.76,15.64l.18.4c-.32.23-.6.4-.86.53s-.47.19-.63.19c-.27,0-.47-.08-.6-.24-.13-.16-.21-.39-.22-.71-.46.31-.84.53-1.14.66-.3.13-.57.2-.81.2-.42,0-.78-.16-1.06-.48s-.43-.71-.43-1.17c0-.79.85-1.38,2.54-1.78.4-.09.71-.17.93-.22,0-.07,0-.18,0-.31.01-.28.02-.46.02-.54,0-.44-.09-.76-.27-.97-.18-.21-.46-.31-.83-.31s-.64.07-.85.2c-.21.13-.31.31-.31.54,0,.02,0,.05,0,.08,0,.04,0,.06,0,.08,0,.13-.06.24-.19.32s-.28.13-.45.13c-.15,0-.26-.03-.33-.08-.07-.05-.11-.13-.11-.23,0-.34.28-.71.85-1.12.57-.41,1.15-.62,1.76-.62s1.03.16,1.33.48c.3.32.45.79.45,1.41,0,.34-.02.85-.06,1.55-.04.7-.06,1.23-.06,1.59,0,.27.03.46.09.55.06.1.17.15.32.15.07,0,.15-.02.26-.06.11-.04.27-.11.48-.21ZM84.61,13.51c-.08.02-.2.05-.36.09-1.36.37-2.05.81-2.05,1.32,0,.28.09.5.26.68s.41.26.7.26c.18,0,.38-.05.61-.14.23-.09.5-.24.81-.44l.03-1.77Z"/>
        <path class="cls-1" d="M89.24,10.11c-.02.17-.03.34-.04.5-.01.16-.02.33-.03.49.57-.36,1.02-.6,1.33-.73.32-.12.63-.19.92-.19.36,0,.66.08.91.25.25.16.46.42.64.77.56-.37,1.02-.64,1.38-.79s.68-.23.96-.23c.61,0,1.06.19,1.34.56.28.37.42.98.42,1.81v.13l-.03,2.07c0,.21,0,.4-.01.57v.03c0,.3.05.5.14.6.09.1.28.15.55.15h.15v.44c-.41-.03-.71-.04-.91-.05s-.37-.01-.49-.01c-.13,0-.3,0-.5.01s-.48.03-.85.05v-.44s.06,0,.09,0,.09,0,.16,0c.27,0,.45-.09.54-.26s.14-.6.14-1.27v-.92c0-.15,0-.35,0-.6,0-.25,0-.42,0-.52,0-.54-.1-.93-.29-1.18-.19-.25-.5-.38-.9-.38-.2,0-.43.05-.71.16s-.61.27-1.01.5l-.05,3.1v.52c0,.38.05.61.14.7.09.09.29.14.58.14h.08v.43c-.33-.02-.61-.03-.83-.04s-.41-.02-.57-.02-.35,0-.56.02-.44.03-.67.05v-.44c.29,0,.48-.02.57-.07.09-.05.15-.16.19-.34.03-.14.05-.49.07-1.05s.02-1.28.02-2.16c0-.52-.09-.91-.28-1.14s-.48-.35-.89-.35c-.2,0-.43.05-.71.15s-.61.26-.99.48c-.03.68-.04,1.28-.05,1.78s-.02.96-.02,1.37c0,.64.04,1.03.13,1.15s.27.19.54.19c.02,0,.05,0,.1,0,.04,0,.08,0,.11,0v.44c-.27-.02-.52-.04-.76-.05-.24-.01-.47-.02-.69-.02-.18,0-.39,0-.62.02s-.47.03-.72.05v-.44s.11,0,.11,0c.52,0,.79-.51.79-1.53,0-.15,0-.27,0-.35v-1.54s.01-.62.01-.62c0-.41-.03-.68-.09-.81s-.18-.19-.35-.19c-.03,0-.08,0-.13.01s-.11.02-.17.04l-.08-.39c.31-.08.62-.18.94-.28.31-.1.63-.21.94-.33Z"/>
        <path class="cls-1" d="M100.49,6.79v.23c-.07,1.64-.1,2.85-.1,3.61v.42c.43-.29.81-.5,1.14-.63.33-.13.64-.19.95-.19.69,0,1.29.29,1.79.86.5.57.75,1.27.75,2.08,0,1.03-.33,1.87-.99,2.51-.66.64-1.54.96-2.63.96-.36,0-.71-.02-1.06-.07-.34-.05-.68-.12-1.02-.21.03-1.41.04-2.52.06-3.35.01-.82.02-1.36.02-1.6v-.84c0-.22,0-.5,0-.83,0-.34,0-.56,0-.68,0-.55-.03-.92-.1-1.1s-.19-.27-.36-.27c-.04,0-.09,0-.15,0-.06,0-.13.02-.22.03l-.07-.4c.32-.07.65-.14.98-.23.33-.09.66-.19,1-.31ZM100.5,15.72c.19.1.39.18.58.22s.4.07.62.07c.7,0,1.25-.22,1.65-.65.4-.43.6-1.03.6-1.8s-.18-1.35-.54-1.82-.83-.7-1.4-.7c-.24,0-.49.04-.74.12-.26.08-.54.21-.86.38,0,.37,0,.71,0,1.04s0,.63,0,.9c0,.64,0,1.13.03,1.49.02.35.04.6.08.74Z"/>
        <path class="cls-1" d="M111.28,13.03h-3.07c-.24,0-.46,0-.66.01-.2,0-.39.02-.56.04v.23c0,.82.19,1.46.57,1.91.38.45.92.67,1.61.67.31,0,.61-.05.91-.15s.61-.26.95-.48l.24.4c-.43.35-.86.62-1.29.8s-.85.27-1.28.27c-.81,0-1.49-.29-2.01-.87-.53-.58-.79-1.33-.79-2.24,0-.97.28-1.78.83-2.44.55-.66,1.23-.99,2.03-.99.74,0,1.33.25,1.78.74s.69,1.19.76,2.1ZM110.11,12.37c-.13-.52-.32-.91-.57-1.19s-.56-.41-.92-.41c-.4,0-.75.16-1.04.48-.29.32-.47.76-.56,1.31.83,0,1.48-.01,1.96-.04s.85-.08,1.13-.15Z"/>
        <path class="cls-1" d="M114.07,10.11c-.03.28-.05.57-.07.87s-.03.6-.04.93c.34-.6.65-1.03.94-1.3.29-.27.58-.4.89-.4.24,0,.43.06.57.19.14.13.21.3.21.52,0,.16-.04.29-.14.4s-.2.17-.32.17c-.08,0-.19-.04-.35-.12-.16-.08-.29-.12-.41-.12-.22,0-.44.09-.65.29s-.45.49-.69.89v.69c0,.67,0,1.22.02,1.63s.03.68.05.8c.04.21.12.36.24.44.12.08.34.12.63.12h.18v.44c-.33-.03-.62-.04-.88-.06-.26-.01-.47-.02-.65-.02-.24,0-.49,0-.75.02-.26.01-.53.03-.81.06v-.44h.15c.31,0,.51-.07.62-.22.11-.15.16-.49.16-1.03v-2.71c0-.45-.03-.75-.09-.88-.06-.13-.18-.19-.35-.19-.03,0-.07,0-.11,0s-.1,0-.19.02l-.08-.39c.3-.07.6-.15.92-.25s.64-.22.98-.35Z"/>
        <path class="cls-1" d="M118.72,9.18l.42.13c-.03.23-.05.44-.06.62-.01.18-.02.36-.03.54h.45c.24,0,.48,0,.73-.01.25,0,.5-.01.75-.03l-.15.69c-.27-.02-.52-.03-.76-.04-.24,0-.47,0-.71,0h-.3c-.03.72-.04,1.28-.05,1.66-.01.38-.02.7-.02.95,0,.95.07,1.57.2,1.85.13.29.36.43.7.43.14,0,.29-.03.46-.09.17-.06.38-.16.62-.29l.21.42c-.4.24-.77.43-1.1.55s-.61.19-.86.19c-.45,0-.78-.15-.98-.46-.2-.31-.31-.8-.31-1.49,0-.13,0-.61.03-1.44.02-.83.03-1.58.03-2.27-.04,0-.09,0-.16,0-.35.01-.59.02-.72.02v-.45c.41-.06.75-.21,1.02-.46.27-.24.46-.58.59-1.01Z"/>
      </g>
    </g>
    <g>
      <path class="cls-2" d="M56.59,25.3v-5.1h1.86c.33,0,.6.04.82.11.21.08.38.18.51.31.12.13.21.28.26.46.05.17.07.35.07.54,0,.28-.06.52-.17.7-.12.18-.27.33-.45.44-.18.11-.39.18-.63.22-.23.04-.47.06-.7.06h-1.09v2.25h-.48ZM58.18,22.63c.23,0,.43-.01.61-.04.18-.03.33-.08.46-.16.12-.08.22-.18.29-.32s.1-.31.1-.53c0-.32-.1-.56-.32-.73-.21-.16-.54-.25-1-.25h-1.25v2.03h1.1Z"/>
      <path class="cls-2" d="M61.66,25.3v-5.1h.42v1.94c.17-.18.35-.33.53-.44.18-.11.4-.17.65-.17.23,0,.44.04.63.12.19.08.36.21.49.41.09.13.14.27.16.41s.02.28.02.44v2.4h-.42v-2.39c0-.33-.07-.58-.22-.74s-.39-.25-.73-.25c-.13,0-.25.02-.36.06-.11.04-.21.09-.29.16-.09.07-.16.14-.22.23-.06.09-.11.18-.14.27-.04.12-.07.23-.08.34,0,.11-.01.23-.01.35v1.97h-.42Z"/>
      <path class="cls-2" d="M67.84,25.39c-.24,0-.46-.05-.66-.13-.21-.08-.38-.2-.54-.36s-.27-.36-.36-.6c-.09-.24-.13-.52-.13-.84,0-.27.04-.52.11-.75s.18-.44.32-.61c.14-.18.32-.31.53-.41.21-.1.46-.15.74-.15s.54.05.75.15c.21.1.39.24.53.41.14.17.25.38.32.61s.1.49.1.76c0,.29-.04.56-.12.79-.08.23-.19.44-.34.61s-.33.3-.54.39c-.21.09-.44.14-.7.14ZM69.08,23.46c0-.22-.02-.42-.07-.61s-.12-.35-.22-.49-.23-.25-.38-.33c-.16-.08-.35-.12-.57-.12s-.41.04-.57.13c-.16.09-.29.2-.39.35s-.17.31-.22.5-.07.38-.07.58c0,.23.03.44.08.63.05.19.13.35.24.49s.23.24.39.32c.16.07.34.11.54.11.22,0,.41-.04.57-.13.16-.09.29-.2.39-.35s.17-.31.22-.5.07-.38.07-.57Z"/>
      <path class="cls-2" d="M72.39,25.31c-.05,0-.12.03-.21.05-.09.02-.18.04-.28.04-.21,0-.37-.05-.48-.16-.11-.11-.17-.3-.17-.57v-2.68h-.52v-.35h.52v-1.02h.42v1.02h.69v.35h-.69v2.51c0,.09,0,.17,0,.23,0,.07.02.12.04.16.02.04.06.07.11.09.05.02.12.03.21.03.06,0,.11,0,.17-.01s.12-.02.17-.04v.35Z"/>
      <path class="cls-2" d="M75.31,25.39c-.24,0-.46-.05-.66-.13-.21-.08-.38-.2-.54-.36s-.27-.36-.36-.6c-.09-.24-.13-.52-.13-.84,0-.27.04-.52.11-.75s.18-.44.32-.61c.14-.18.32-.31.53-.41.21-.1.46-.15.74-.15s.54.05.75.15c.21.1.39.24.53.41.14.17.25.38.32.61s.1.49.1.76c0,.29-.04.56-.12.79-.08.23-.19.44-.34.61s-.33.3-.54.39c-.21.09-.44.14-.7.14ZM76.56,23.46c0-.22-.02-.42-.07-.61s-.12-.35-.22-.49-.23-.25-.38-.33c-.16-.08-.35-.12-.57-.12s-.41.04-.57.13c-.16.09-.29.2-.39.35s-.17.31-.22.5-.07.38-.07.58c0,.23.03.44.08.63.05.19.13.35.24.49s.23.24.39.32c.16.07.34.11.54.11.22,0,.41-.04.57-.13.16-.09.29-.2.39-.35s.17-.31.22-.5.07-.38.07-.57Z"/>
      <path class="cls-2" d="M81.41,21.63h.42v3.31c0,.25-.02.48-.07.7-.05.22-.14.42-.27.59-.13.17-.3.31-.52.41s-.51.15-.86.15c-.27,0-.5-.03-.69-.1-.19-.07-.35-.15-.47-.26s-.22-.22-.28-.34c-.06-.13-.1-.24-.1-.35h.45c.03.14.08.25.16.34.07.09.15.16.25.21s.2.08.32.1.24.03.37.03c.29,0,.52-.05.69-.15s.31-.23.4-.39c.09-.16.15-.34.17-.55.03-.2.04-.41.03-.62-.14.23-.32.4-.56.51-.24.12-.49.17-.75.17-.28,0-.52-.05-.73-.16-.21-.11-.37-.25-.51-.43-.13-.18-.23-.38-.3-.62-.07-.23-.1-.48-.1-.74,0-.27.03-.52.09-.76.06-.24.16-.44.29-.61.13-.17.31-.31.51-.41.21-.1.46-.15.76-.15.12,0,.24.02.36.05.12.03.24.08.36.14.12.06.22.14.32.23s.18.2.24.32h.01v-.64ZM81.41,23.48c0-.22-.03-.43-.08-.62-.05-.19-.13-.36-.24-.5s-.23-.25-.39-.33c-.16-.08-.33-.12-.53-.12-.18,0-.34.03-.5.1s-.28.16-.4.28c-.11.12-.2.27-.27.45-.06.18-.1.38-.1.61,0,.23,0,.45.06.65s.12.38.23.53.24.27.4.36c.16.09.35.13.57.13.19,0,.37-.04.52-.12.15-.08.28-.19.39-.33.11-.14.19-.3.24-.49.06-.19.09-.38.09-.59Z"/>
      <path class="cls-2" d="M84.13,25.3h-.42v-3.67h.42v.69h.01c.12-.29.27-.5.46-.61.19-.12.43-.17.74-.17v.46c-.24,0-.44.03-.59.11s-.28.19-.37.32c-.09.14-.16.3-.19.48-.04.19-.05.38-.05.58v1.8Z"/>
      <path class="cls-2" d="M88.51,23.16c.08,0,.18-.02.29-.04.11-.02.2-.04.27-.08s.11-.09.13-.17c.02-.08.02-.15.02-.22,0-.22-.07-.4-.21-.53-.14-.14-.37-.21-.7-.21-.15,0-.28.01-.4.04-.12.03-.23.07-.32.13-.09.06-.17.15-.23.26-.06.11-.1.24-.12.4h-.43c.01-.22.06-.4.15-.56.09-.15.19-.28.33-.37.13-.1.29-.17.47-.21.18-.04.36-.07.56-.07.18,0,.36.02.52.06.16.04.3.1.42.19.12.09.21.2.28.35.07.15.1.33.1.54v2c0,.16.03.27.09.31.06.04.18.03.36-.03v.33s-.08.02-.15.04c-.06.02-.13.03-.19.03-.07,0-.13,0-.19-.02-.07,0-.13-.03-.17-.07-.04-.04-.08-.08-.1-.13s-.04-.1-.05-.16c0-.06-.01-.12-.01-.19-.18.2-.38.35-.62.45-.23.1-.48.16-.75.16-.16,0-.32-.02-.46-.06-.15-.04-.28-.11-.39-.2-.11-.09-.2-.2-.27-.33-.07-.13-.1-.28-.1-.46,0-.62.43-.99,1.28-1.1l.59-.08ZM89.23,23.37c-.18.07-.36.12-.54.15-.18.02-.37.04-.55.06-.33.02-.58.1-.76.22-.18.12-.27.31-.27.56,0,.11.02.21.07.29.04.08.1.15.18.21s.16.09.25.12c.1.03.19.04.29.04.17,0,.34-.02.5-.06s.3-.11.43-.19c.12-.09.23-.2.3-.33s.11-.29.11-.48v-.57Z"/>
      <path class="cls-2" d="M92.02,26.74h-.42v-5.11h.42v.64h.01c.06-.12.14-.22.24-.32s.2-.17.32-.23.23-.11.36-.14c.12-.03.24-.05.36-.05.3,0,.55.05.76.15.21.1.38.23.51.41.13.17.23.38.29.61s.09.49.09.76c0,.25-.03.5-.1.74-.07.24-.17.44-.3.62-.13.18-.3.32-.51.43-.21.11-.45.16-.73.16-.26,0-.51-.06-.75-.17-.24-.12-.43-.29-.56-.51v2.03ZM92.02,23.48c0,.21.03.4.08.59.06.19.14.35.24.49.11.14.24.25.39.33.15.08.33.12.52.12.22,0,.41-.04.57-.13.16-.09.3-.21.4-.36s.18-.33.23-.53.07-.42.06-.65c0-.23-.03-.44-.1-.61-.06-.18-.15-.33-.27-.45-.11-.12-.25-.22-.4-.28-.15-.06-.32-.1-.5-.1-.2,0-.37.04-.53.12-.16.08-.29.19-.39.33s-.18.3-.24.5-.08.4-.08.62Z"/>
      <path class="cls-2" d="M96.66,25.3v-5.1h.42v1.94c.17-.18.35-.33.53-.44.18-.11.4-.17.65-.17.23,0,.44.04.63.12.19.08.36.21.49.41.09.13.14.27.16.41s.02.28.02.44v2.4h-.42v-2.39c0-.33-.07-.58-.22-.74s-.39-.25-.73-.25c-.13,0-.25.02-.36.06-.11.04-.21.09-.29.16-.09.07-.16.14-.22.23-.06.09-.11.18-.14.27-.04.12-.07.23-.08.34,0,.11-.01.23-.01.35v1.97h-.42Z"/>
      <path class="cls-2" d="M101.64,23.56c0,.2.03.39.08.56.05.18.13.33.23.46.1.13.23.23.39.31.16.08.33.12.54.12.28,0,.52-.07.71-.22s.33-.35.4-.62h.47c-.05.17-.12.34-.21.48-.09.15-.19.28-.32.39-.13.11-.28.2-.45.26s-.38.09-.61.09c-.29,0-.55-.05-.76-.15-.21-.1-.39-.23-.52-.41-.14-.17-.24-.37-.3-.61s-.1-.48-.1-.75.04-.52.12-.76c.08-.23.19-.44.33-.62.14-.18.32-.32.53-.42.21-.1.44-.15.71-.15.5,0,.9.17,1.19.52.29.35.43.85.42,1.51h-2.85ZM104.03,23.21c0-.18-.02-.35-.07-.51s-.12-.29-.22-.41c-.1-.12-.22-.21-.36-.28s-.31-.1-.5-.1-.36.04-.5.11c-.14.07-.27.17-.37.28s-.18.25-.24.41c-.06.16-.1.32-.12.5h2.39Z"/>
    </g>
  </g>
</svg>